<svg width="360" height="400" viewBox="0 0 360 400" fill="none" xmlns="http://www.w3.org/2000/svg">
<path d="M341.52 184.496C340.84 184.497 340.166 184.361 339.54 184.096C338.94 183.847 338.397 183.481 337.94 183.02C337.485 182.561 337.123 182.018 336.876 181.42C336.621 180.795 336.494 180.126 336.5 179.452C336.494 178.789 336.62 178.132 336.87 177.518C337.12 176.904 337.489 176.346 337.956 175.876C338.412 175.414 338.956 175.048 339.556 174.8C340.189 174.534 340.869 174.398 341.556 174.4C342.241 174.392 342.921 174.52 343.556 174.776C344.156 175.018 344.7 175.38 345.156 175.84C345.609 176.299 345.968 176.843 346.212 177.44C346.468 178.067 346.595 178.739 346.588 179.416C346.59 180.103 346.454 180.783 346.188 181.416C345.806 182.336 345.157 183.12 344.325 183.668C343.493 184.215 342.516 184.501 341.52 184.488V184.496ZM341.52 183.968C342.114 183.971 342.702 183.857 343.251 183.632C343.8 183.407 344.3 183.075 344.72 182.656C345.137 182.245 345.465 181.752 345.684 181.208C345.914 180.644 346.031 180.041 346.028 179.432C346.034 178.826 345.92 178.225 345.692 177.664C345.476 177.131 345.156 176.645 344.752 176.236C344.346 175.826 343.86 175.503 343.324 175.288C342.754 175.06 342.146 174.946 341.532 174.952C340.921 174.947 340.314 175.062 339.748 175.292C339.21 175.512 338.723 175.84 338.316 176.256C337.482 177.113 337.016 178.261 337.016 179.456C337.016 180.651 337.482 181.799 338.316 182.656C338.721 183.07 339.205 183.398 339.74 183.62C340.3 183.853 340.901 183.971 341.508 183.968H341.52ZM339.58 182.344V176.576H341.82C342.419 176.543 343.009 176.729 343.48 177.1C343.681 177.27 343.84 177.483 343.945 177.723C344.05 177.964 344.099 178.226 344.088 178.488C344.103 178.757 344.056 179.025 343.951 179.273C343.845 179.521 343.684 179.741 343.48 179.916C343.002 180.285 342.407 180.468 341.804 180.432H340.32V182.344H339.58ZM340.308 179.804H341.764C342.184 179.829 342.6 179.707 342.94 179.46C343.076 179.339 343.183 179.189 343.252 179.02C343.321 178.852 343.351 178.67 343.34 178.488C343.352 178.31 343.322 178.131 343.253 177.967C343.183 177.802 343.076 177.656 342.94 177.54C342.598 177.297 342.183 177.178 341.764 177.204H340.308V179.804ZM343.376 182.344L341.932 180.116H342.704L344.144 182.344H343.376Z" fill="white"/>
<path d="M110.376 231.556L110.216 231.644C104.522 234.79 98.1219 236.441 91.616 236.441C85.1101 236.441 78.7105 234.79 73.016 231.644L72.856 231.556L72.984 231.424L90.984 213.424H91.048C91.22 213.424 91.4 213.424 91.62 213.424H91.88C91.988 213.424 92.1 213.424 92.212 213.424H92.276L110.376 231.556Z" fill="#3E04EF"/>
<path d="M103.112 170.944C103.112 173.969 101.911 176.87 99.7721 179.009C97.6336 181.149 94.7329 182.351 91.708 182.352H91.58C89.5086 182.336 87.4813 181.753 85.7182 180.665C83.9552 179.578 82.5239 178.028 81.58 176.184C80.6834 174.454 80.2452 172.523 80.3074 170.576C80.3695 168.629 80.9299 166.73 81.9349 165.061C82.94 163.392 84.3562 162.008 86.0482 161.042C87.7403 160.077 89.6518 159.561 91.6 159.544H91.76C94.7726 159.565 97.655 160.774 99.7807 162.909C101.906 165.044 103.104 167.931 103.112 170.944Z" fill="#3E04EF"/>
<path d="M78.444 187.376C78.4451 188.875 78.1508 190.36 77.5781 191.745C77.0053 193.131 76.1653 194.39 75.106 195.451C74.0467 196.512 72.7888 197.353 71.4041 197.928C70.0195 198.503 68.5352 198.799 67.036 198.8H66.852C64.2842 198.758 61.8056 197.851 59.8175 196.225C57.8294 194.599 56.4481 192.35 55.897 189.842C55.3459 187.333 55.6573 184.712 56.7808 182.403C57.9044 180.093 59.7743 178.231 62.088 177.116C63.5775 176.393 65.2084 176.008 66.864 175.988H67.036C70.0572 175.991 72.954 177.191 75.0921 179.326C77.2303 181.46 78.4355 184.355 78.444 187.376Z" fill="#3E04EF"/>
<path d="M129.788 202.54L129.768 202.696C128.612 212.224 123.918 220.97 116.616 227.2C115.816 227.896 114.96 228.568 114.088 229.2L113.988 229.268L113.904 229.184L97.232 212.508L97.428 212.428C99.5947 211.588 101.546 210.272 103.138 208.579C104.73 206.886 105.922 204.858 106.628 202.644L106.652 202.544L129.788 202.54Z" fill="#3E04EF"/>
<path d="M127.936 187.376C127.94 189.946 127.075 192.441 125.483 194.458C123.891 196.475 121.664 197.895 119.164 198.488C116.664 199.081 114.037 198.812 111.708 197.726C109.38 196.639 107.487 194.797 106.336 192.5C106.268 192.304 106.192 192.132 106.12 191.956C106.012 191.7 105.908 191.46 105.788 191.22C105.171 189.498 104.977 187.653 105.222 185.841C105.468 184.028 106.146 182.302 107.199 180.806C108.252 179.311 109.649 178.09 111.273 177.248C112.897 176.406 114.699 175.967 116.528 175.968C118.581 175.968 120.597 176.522 122.361 177.573C124.126 178.623 125.574 180.131 126.552 181.936L126.572 181.972C126.876 182.624 127.14 183.248 127.372 183.832C127.383 183.858 127.391 183.884 127.396 183.912C127.754 185.032 127.936 186.2 127.936 187.376Z" fill="#3E04EF"/>
<path d="M86.032 212.32L85.888 212.468L69.148 229.2L69.048 229.132C68.248 228.548 67.484 227.932 66.776 227.336C59.3766 221.103 54.6141 212.297 53.448 202.692L53.428 202.536H77.084L77.112 202.636C77.7858 204.772 78.9151 206.737 80.422 208.394C81.9288 210.052 83.7774 211.362 85.84 212.236L86.032 212.32Z" fill="#3E04EF"/>
<path d="M137.856 230.712C138.456 224.763 138.959 218.081 139.364 210.668C139.769 203.255 139.996 196.612 140.044 190.74C142.46 190.791 144.389 190.816 145.832 190.816C147.536 190.816 149.345 190.791 151.26 190.74L150.824 197.42C151.485 196.462 152.201 195.543 152.968 194.668C153.673 193.913 154.464 193.241 155.324 192.668C156.276 192.016 157.307 191.487 158.392 191.096C159.581 190.677 160.804 190.361 162.048 190.152C163.445 189.913 164.859 189.795 166.276 189.8C168.539 189.79 170.793 190.087 172.976 190.684C174.91 191.161 176.691 192.125 178.148 193.484C179.372 194.63 180.267 196.083 180.74 197.692C181.168 199.268 181.381 200.895 181.372 202.528C181.372 203.236 181.332 204.36 181.252 205.908L180.452 223.084C180.348 225.468 180.284 228.009 180.26 230.708C178.184 230.656 176.416 230.632 174.944 230.632C172.944 230.632 170.944 230.656 168.92 230.708C169.133 228.428 169.4 224.452 169.72 218.78C170.04 213.108 170.197 209.355 170.192 207.52C170.192 205.448 169.865 203.784 169.212 202.528C168.545 201.259 167.474 200.248 166.168 199.656C164.774 198.999 163.249 198.664 161.708 198.676C160.194 198.663 158.694 198.971 157.308 199.58C155.947 200.181 154.738 201.08 153.772 202.212C152.671 203.485 151.842 204.97 151.336 206.576C150.736 208.408 150.291 211.435 150 215.656C149.733 219.403 149.523 224.42 149.368 230.708C147.347 230.657 145.523 230.632 143.896 230.632C142.269 230.632 140.256 230.659 137.856 230.712Z" fill="white"/>
<path d="M200.132 230.712L195.532 216.76L188.92 197.56L186.44 190.724C188.456 190.775 190.3 190.8 191.972 190.8C193.572 190.8 195.247 190.775 196.996 190.724L206.088 220.184L216.512 190.724C218.48 190.775 220.356 190.8 222.14 190.8C224.028 190.8 225.825 190.775 227.532 190.724L234.28 216.72C234.36 217.12 234.636 218.268 235.104 220.18L236 217.6C236.024 217.549 236.272 216.933 236.744 215.752L242.844 200.304L246.464 190.756C248.456 190.807 250.172 190.832 251.612 190.832C252.788 190.832 254.569 190.807 256.956 190.756L246.156 215.44C243.825 220.733 241.664 225.829 239.672 230.728C237.472 230.677 235.739 230.652 234.472 230.652C233.16 230.652 231.168 230.677 228.496 230.728L221.296 202.116C220.904 203.137 220.119 205.312 218.94 208.64L210.968 230.728C208.739 230.677 207.048 230.652 205.896 230.652C204.632 230.641 202.711 230.661 200.132 230.712Z" fill="white"/>
<path d="M262.696 199.504C263.064 197.616 263.293 196.292 263.384 195.532C263.476 194.776 263.64 193.62 263.876 192.076C266.987 191.322 270.135 190.73 273.308 190.304C275.926 189.972 278.561 189.802 281.2 189.796C283.88 189.77 286.551 190.106 289.14 190.796C291.54 191.463 293.427 192.529 294.8 193.996C296.173 195.463 296.855 197.572 296.844 200.324C296.844 201.82 296.635 205.627 296.216 211.744C295.797 217.861 295.551 224.183 295.476 230.708C293.476 230.656 291.644 230.632 289.968 230.632C288.368 230.632 286.493 230.657 284.344 230.708C284.688 227.54 284.965 223.872 285.176 219.704L285.696 209.916C284.96 210.416 284.198 210.875 283.412 211.292C282.84 211.575 282.249 211.818 281.644 212.02C280.984 212.244 279.832 212.584 278.18 213.04C276.528 213.496 275.204 213.9 274.208 214.24C273.279 214.551 272.377 214.94 271.512 215.4C270.772 215.788 270.09 216.277 269.484 216.852C268.978 217.333 268.57 217.907 268.284 218.544C268.033 219.148 267.906 219.797 267.912 220.452C267.889 221.485 268.23 222.493 268.876 223.3C269.493 224.083 270.328 224.665 271.276 224.972C272.385 225.305 273.538 225.464 274.696 225.444C275.584 225.44 276.47 225.373 277.348 225.244C278.626 225.027 279.883 224.699 281.104 224.264C280.348 226.456 279.705 228.686 279.176 230.944C277.309 231.259 275.829 231.456 274.736 231.536C273.636 231.612 272.612 231.652 271.672 231.652C268.368 231.652 265.655 231.207 263.532 230.316C261.507 229.513 259.84 228.006 258.836 226.072C257.864 224.272 257.345 222.262 257.324 220.216C257.332 217.888 258.153 215.636 259.644 213.848C260.506 212.837 261.497 211.944 262.592 211.192C264.219 210.14 265.979 209.307 267.824 208.716C270.79 207.738 273.811 206.937 276.872 206.316C277.864 206.108 278.904 205.852 279.976 205.548C280.855 205.316 281.716 205.021 282.552 204.664C283.171 204.393 283.737 204.014 284.224 203.544C284.66 203.137 285.014 202.651 285.268 202.112C285.485 201.629 285.598 201.106 285.6 200.576C285.623 199.614 285.263 198.682 284.6 197.984C283.893 197.254 282.992 196.742 282.004 196.508C280.851 196.226 279.667 196.091 278.48 196.108C273.728 196.092 268.467 197.224 262.696 199.504Z" fill="white"/>
<path d="M300.4 248.756C299.928 244.823 299.548 241.992 299.26 240.264C301.473 241.37 303.903 241.974 306.376 242.032C307.078 242.029 307.778 241.945 308.46 241.78C309.142 241.617 309.801 241.373 310.424 241.052C310.864 240.809 311.267 240.506 311.624 240.152C312.244 239.483 312.804 238.76 313.296 237.992C313.971 236.995 314.587 235.958 315.14 234.888C315.639 233.816 316.072 232.714 316.436 231.588L308.26 207.692L302.28 190.74C305.029 190.791 307.007 190.816 308.212 190.816C309.601 190.816 311.423 190.791 313.676 190.74C314.228 192.913 314.736 194.8 315.2 196.4L318.936 208.744C320.088 212.544 320.913 215.4 321.412 217.312C321.729 218.571 322.097 220.235 322.516 222.304C323.3 219.92 323.981 217.981 324.56 216.488C325.581 213.763 327.007 210.12 328.836 205.56L332.648 196.164C333.328 194.487 334.021 192.679 334.728 190.74C337.084 190.792 338.884 190.816 340.116 190.816C341.244 190.816 343.132 190.791 345.78 190.74L330.644 224.636L324.092 239.6C323.379 241.195 322.497 242.709 321.46 244.116C320.817 244.994 320.064 245.786 319.22 246.472C318.447 247.094 317.602 247.621 316.704 248.044C315.531 248.585 314.306 249.005 313.048 249.3C311.562 249.615 310.047 249.773 308.528 249.772C307.664 249.772 306.456 249.696 304.928 249.536C303.402 249.386 301.888 249.125 300.4 248.756Z" fill="white"/>
<path d="M242.861 243.27C243.041 243.003 243.288 242.787 243.601 242.62C243.921 242.453 244.285 242.37 244.691 242.37C245.165 242.37 245.591 242.487 245.971 242.72C246.358 242.953 246.661 243.287 246.881 243.72C247.108 244.147 247.221 244.643 247.221 245.21C247.221 245.777 247.108 246.28 246.881 246.72C246.661 247.153 246.358 247.49 245.971 247.73C245.591 247.97 245.165 248.09 244.691 248.09C244.278 248.09 243.915 248.01 243.601 247.85C243.295 247.683 243.048 247.47 242.861 247.21V248H241.461V240.6H242.861V243.27ZM245.791 245.21C245.791 244.877 245.721 244.59 245.581 244.35C245.448 244.103 245.268 243.917 245.041 243.79C244.821 243.663 244.581 243.6 244.321 243.6C244.068 243.6 243.828 243.667 243.601 243.8C243.381 243.927 243.201 244.113 243.061 244.36C242.928 244.607 242.861 244.897 242.861 245.23C242.861 245.563 242.928 245.853 243.061 246.1C243.201 246.347 243.381 246.537 243.601 246.67C243.828 246.797 244.068 246.86 244.321 246.86C244.581 246.86 244.821 246.793 245.041 246.66C245.268 246.527 245.448 246.337 245.581 246.09C245.721 245.843 245.791 245.55 245.791 245.21ZM253.539 242.46L250.109 250.62H248.619L249.819 247.86L247.599 242.46H249.169L250.599 246.33L252.049 242.46H253.539ZM259.136 248.09C258.603 248.09 258.123 247.973 257.696 247.74C257.27 247.5 256.933 247.163 256.686 246.73C256.446 246.297 256.326 245.797 256.326 245.23C256.326 244.663 256.45 244.163 256.696 243.73C256.95 243.297 257.293 242.963 257.726 242.73C258.16 242.49 258.643 242.37 259.176 242.37C259.71 242.37 260.193 242.49 260.626 242.73C261.06 242.963 261.4 243.297 261.646 243.73C261.9 244.163 262.026 244.663 262.026 245.23C262.026 245.797 261.896 246.297 261.636 246.73C261.383 247.163 261.036 247.5 260.596 247.74C260.163 247.973 259.676 248.09 259.136 248.09ZM259.136 246.87C259.39 246.87 259.626 246.81 259.846 246.69C260.073 246.563 260.253 246.377 260.386 246.13C260.52 245.883 260.586 245.583 260.586 245.23C260.586 244.703 260.446 244.3 260.166 244.02C259.893 243.733 259.556 243.59 259.156 243.59C258.756 243.59 258.42 243.733 258.146 244.02C257.88 244.3 257.746 244.703 257.746 245.23C257.746 245.757 257.876 246.163 258.136 246.45C258.403 246.73 258.736 246.87 259.136 246.87ZM264.453 243.26C264.633 243.007 264.88 242.797 265.193 242.63C265.513 242.457 265.877 242.37 266.283 242.37C266.757 242.37 267.183 242.487 267.563 242.72C267.95 242.953 268.253 243.287 268.473 243.72C268.7 244.147 268.813 244.643 268.813 245.21C268.813 245.777 268.7 246.28 268.473 246.72C268.253 247.153 267.95 247.49 267.563 247.73C267.183 247.97 266.757 248.09 266.283 248.09C265.877 248.09 265.517 248.007 265.203 247.84C264.897 247.673 264.647 247.463 264.453 247.21V250.64H263.053V242.46H264.453V243.26ZM267.383 245.21C267.383 244.877 267.313 244.59 267.173 244.35C267.04 244.103 266.86 243.917 266.633 243.79C266.413 243.663 266.173 243.6 265.913 243.6C265.66 243.6 265.42 243.667 265.193 243.8C264.973 243.927 264.793 244.113 264.653 244.36C264.52 244.607 264.453 244.897 264.453 245.23C264.453 245.563 264.52 245.853 264.653 246.1C264.793 246.347 264.973 246.537 265.193 246.67C265.42 246.797 265.66 246.86 265.913 246.86C266.173 246.86 266.413 246.793 266.633 246.66C266.86 246.527 267.04 246.337 267.173 246.09C267.313 245.843 267.383 245.55 267.383 245.21ZM271.231 243.32C271.411 243.027 271.644 242.797 271.931 242.63C272.224 242.463 272.557 242.38 272.931 242.38V243.85H272.561C272.121 243.85 271.787 243.953 271.561 244.16C271.341 244.367 271.231 244.727 271.231 245.24V248H269.831V242.46H271.231V243.32ZM279.024 245.11C279.024 245.31 279.01 245.49 278.984 245.65H274.934C274.967 246.05 275.107 246.363 275.354 246.59C275.6 246.817 275.904 246.93 276.264 246.93C276.784 246.93 277.154 246.707 277.374 246.26H278.884C278.724 246.793 278.417 247.233 277.964 247.58C277.51 247.92 276.954 248.09 276.294 248.09C275.76 248.09 275.28 247.973 274.854 247.74C274.434 247.5 274.104 247.163 273.864 246.73C273.63 246.297 273.514 245.797 273.514 245.23C273.514 244.657 273.63 244.153 273.864 243.72C274.097 243.287 274.424 242.953 274.844 242.72C275.264 242.487 275.747 242.37 276.294 242.37C276.82 242.37 277.29 242.483 277.704 242.71C278.124 242.937 278.447 243.26 278.674 243.68C278.907 244.093 279.024 244.57 279.024 245.11ZM277.574 244.71C277.567 244.35 277.437 244.063 277.184 243.85C276.93 243.63 276.62 243.52 276.254 243.52C275.907 243.52 275.614 243.627 275.374 243.84C275.14 244.047 274.997 244.337 274.944 244.71H277.574ZM279.685 245.21C279.685 244.65 279.795 244.153 280.015 243.72C280.242 243.287 280.545 242.953 280.925 242.72C281.312 242.487 281.742 242.37 282.215 242.37C282.629 242.37 282.989 242.453 283.295 242.62C283.609 242.787 283.859 242.997 284.045 243.25V242.46H285.455V248H284.045V247.19C283.865 247.45 283.615 247.667 283.295 247.84C282.982 248.007 282.619 248.09 282.205 248.09C281.739 248.09 281.312 247.97 280.925 247.73C280.545 247.49 280.242 247.153 280.015 246.72C279.795 246.28 279.685 245.777 279.685 245.21ZM284.045 245.23C284.045 244.89 283.979 244.6 283.845 244.36C283.712 244.113 283.532 243.927 283.305 243.8C283.079 243.667 282.835 243.6 282.575 243.6C282.315 243.6 282.075 243.663 281.855 243.79C281.635 243.917 281.455 244.103 281.315 244.35C281.182 244.59 281.115 244.877 281.115 245.21C281.115 245.543 281.182 245.837 281.315 246.09C281.455 246.337 281.635 246.527 281.855 246.66C282.082 246.793 282.322 246.86 282.575 246.86C282.835 246.86 283.079 246.797 283.305 246.67C283.532 246.537 283.712 246.35 283.845 246.11C283.979 245.863 284.045 245.57 284.045 245.23ZM293.703 242.38C294.383 242.38 294.929 242.59 295.343 243.01C295.763 243.423 295.973 244.003 295.973 244.75V248H294.573V244.94C294.573 244.507 294.463 244.177 294.243 243.95C294.023 243.717 293.723 243.6 293.343 243.6C292.963 243.6 292.659 243.717 292.433 243.95C292.213 244.177 292.103 244.507 292.103 244.94V248H290.703V244.94C290.703 244.507 290.593 244.177 290.373 243.95C290.153 243.717 289.853 243.6 289.473 243.6C289.086 243.6 288.779 243.717 288.553 243.95C288.333 244.177 288.223 244.507 288.223 244.94V248H286.823V242.46H288.223V243.13C288.403 242.897 288.633 242.713 288.913 242.58C289.199 242.447 289.513 242.38 289.853 242.38C290.286 242.38 290.673 242.473 291.013 242.66C291.353 242.84 291.616 243.1 291.803 243.44C291.983 243.12 292.243 242.863 292.583 242.67C292.929 242.477 293.303 242.38 293.703 242.38Z" fill="white"/>
</svg>
